999
dxfrw 0.5.11
0
SECTION
2
HEADER
9
$ACADVER
1
AC1021
9
$HANDSEED
5
20000
9
$DWGCODEPAGE
3
ANSI_1252
9
$INSBASE
10
0
20
0
30
0
9
$EXTMIN
10
-8.32667268469e-017
20
-2.55
30
0
9
$EXTMAX
10
7.19444444444
20
4.75
30
0
9
$LIMMIN
10
0
20
0
9
$LIMMAX
10
420
20
297
9
$ORTHOMODE
70
0
9
$LTSCALE
40
1
9
$TEXTSTYLE
7
STANDARD
9
$CLAYER
8
0
9
$DIMASZ
40
0.1
9
$DIMLFAC
40
1
9
$DIMSCALE
40
1
9
$DIMEXO
40
0.025
9
$DIMEXE
40
0.05
9
$DIMTXT
40
0.1
9
$DIMTSZ
40
0
9
$DIMAUNIT
70
0
9
$DIMADEC
70
2
9
$DIMLUNIT
70
5
9
$DIMSTYLE
2
STANDARD
9
$DIMGAP
40
0.025
9
$DIMTIH
70
0
9
$LUNITS
70
5
9
$LUPREC
70
6
9
$AUNITS
70
0
9
$AUPREC
70
2
9
$SPLINESEGS
70
8
9
$GRIDMODE
70
1
9
$SNAPSTYLE
70
0
9
$GRIDUNIT
10
0
20
0
9
$PINSBASE
10
1.81875
20
3.025
30
0
9
$PLIMMIN
10
0
20
0
9
$PLIMMAX
10
11
20
8.5
9
$INSUNITS
70
1
9
$PSVPSCALE
40
1
0
ENDSEC
0
SECTION
2
CLASSES
0
ENDSEC
0
SECTION
2
TABLES
0
TABLE
2
VPORT
5
8
330
0
100
AcDbSymbolTable
70
1
0
VPORT
5
31
330
2
100
AcDbSymbolTableRecord
100
AcDbViewportTableRecord
2
*ACTIVE
70
0
10
0
20
0
11
1
21
1
12
6.29725274725
22
2.4352433281
13
0
23
0
14
10
24
10
15
10
25
10
16
0
26
0
36
1
17
0
27
0
37
0
40
7.52919937206
41
2.3896499239
42
50
43
0
44
0
50
0
51
0
71
0
72
100
73
1
74
3
75
0
76
1
77
0
78
0
281
0
65
1
110
0
120
0
130
0
111
1
121
0
131
0
112
0
122
1
132
0
79
0
146
0
348
10020
60
7
61
5
292
1
282
1
141
0
142
0
63
250
421
3358443
0
ENDTAB
0
TABLE
2
LTYPE
5
5
330
0
100
AcDbSymbolTable
70
4
0
LTYPE
5
14
330
5
100
AcDbSymbolTableRecord
100
AcDbLinetypeTableRecord
2
ByBlock
70
0
3

72
65
73
0
40
0
0
LTYPE
5
15
330
5
100
AcDbSymbolTableRecord
100
AcDbLinetypeTableRecord
2
ByLayer
70
0
3

72
65
73
0
40
0
0
LTYPE
5
16
330
5
100
AcDbSymbolTableRecord
100
AcDbLinetypeTableRecord
2
Continuous
70
0
3
Solid line
72
65
73
0
40
0
0
LTYPE
5
32
330
5
100
AcDbSymbolTableRecord
100
AcDbLinetypeTableRecord
2
DOT
70
0
3
Dot . . . . . . . . . . . . . . . . . . . . . .
72
65
73
2
40
6.35
49
0
74
0
49
-6.35
74
0
0
LTYPE
5
33
330
5
100
AcDbSymbolTableRecord
100
AcDbLinetypeTableRecord
2
DOT2
70
0
3
Dot (.5x) .....................................
72
65
73
2
40
3.175
49
0
74
0
49
-3.175
74
0
0
LTYPE
5
34
330
5
100
AcDbSymbolTableRecord
100
AcDbLinetypeTableRecord
2
DOTX2
70
0
3
Dot (2x) .  .  .  .  .  .  .  .  .  .  .  .  .
72
65
73
2
40
12.7
49
0
74
0
49
-12.7
74
0
0
LTYPE
5
35
330
5
100
AcDbSymbolTableRecord
100
AcDbLinetypeTableRecord
2
DASHED
70
0
3
Dot . . . . . . . . . . . . . . . . . . . . . .
72
65
73
2
40
19.05
49
12.7
74
0
49
-6.35
74
0
0
LTYPE
5
36
330
5
100
AcDbSymbolTableRecord
100
AcDbLinetypeTableRecord
2
DASHED2
70
0
3
Dashed (.5x) _ _ _ _ _ _ _ _ _ _ _ _ _ _ _ _ _
72
65
73
2
40
9.525
49
6.35
74
0
49
-3.175
74
0
0
LTYPE
5
37
330
5
100
AcDbSymbolTableRecord
100
AcDbLinetypeTableRecord
2
DASHEDX2
70
0
3
Dashed (2x) ____  ____  ____  ____  ____  ___
72
65
73
2
40
38.1
49
25.4
74
0
49
-12.7
74
0
0
LTYPE
5
38
330
5
100
AcDbSymbolTableRecord
100
AcDbLinetypeTableRecord
2
DASHDOT
70
0
3
Dash dot __ . __ . __ . __ . __ . __ . __ . __
72
65
73
4
40
25.4
49
12.7
74
0
49
-6.35
74
0
49
0
74
0
49
-6.35
74
0
0
LTYPE
5
39
330
5
100
AcDbSymbolTableRecord
100
AcDbLinetypeTableRecord
2
DASHDOT2
70
0
3
Dash dot (.5x) _._._._._._._._._._._._._._._.
72
65
73
4
40
12.7
49
6.35
74
0
49
-3.175
74
0
49
0
74
0
49
-3.175
74
0
0
LTYPE
5
3A
330
5
100
AcDbSymbolTableRecord
100
AcDbLinetypeTableRecord
2
DASHDOTX2
70
0
3
Dash dot (2x) ____  .  ____  .  ____  .  ___
72
65
73
4
40
50.8
49
25.4
74
0
49
-12.7
74
0
49
0
74
0
49
-12.7
74
0
0
LTYPE
5
3B
330
5
100
AcDbSymbolTableRecord
100
AcDbLinetypeTableRecord
2
DIVIDE
70
0
3
Divide ____ . . ____ . . ____ . . ____ . . ____
72
65
73
6
40
31.75
49
12.7
74
0
49
-6.35
74
0
49
0
74
0
49
-6.35
74
0
49
0
74
0
49
-6.35
74
0
0
LTYPE
5
3C
330
5
100
AcDbSymbolTableRecord
100
AcDbLinetypeTableRecord
2
DIVIDE2
70
0
3
Divide (.5x) __..__..__..__..__..__..__..__.._
72
65
73
6
40
15.875
49
6.35
74
0
49
-3.175
74
0
49
0
74
0
49
-3.175
74
0
49
0
74
0
49
-3.175
74
0
0
LTYPE
5
3D
330
5
100
AcDbSymbolTableRecord
100
AcDbLinetypeTableRecord
2
DIVIDEX2
70
0
3
Divide (2x) ________  .  .  ________  .  .  _
72
65
73
6
40
63.5
49
25.4
74
0
49
-12.7
74
0
49
0
74
0
49
-12.7
74
0
49
0
74
0
49
-12.7
74
0
0
LTYPE
5
3E
330
5
100
AcDbSymbolTableRecord
100
AcDbLinetypeTableRecord
2
BORDER
70
0
3
Border __ __ . __ __ . __ __ . __ __ . __ __ .
72
65
73
6
40
44.45
49
12.7
74
0
49
-6.35
74
0
49
12.7
74
0
49
-6.35
74
0
49
0
74
0
49
-6.35
74
0
0
LTYPE
5
3F
330
5
100
AcDbSymbolTableRecord
100
AcDbLinetypeTableRecord
2
BORDER2
70
0
3
Border (.5x) __.__.__.__.__.__.__.__.__.__.__.
72
65
73
6
40
22.225
49
6.35
74
0
49
-3.175
74
0
49
6.35
74
0
49
-3.175
74
0
49
0
74
0
49
-3.175
74
0
0
LTYPE
5
40
330
5
100
AcDbSymbolTableRecord
100
AcDbLinetypeTableRecord
2
BORDERX2
70
0
3
Border (2x) ____  ____  .  ____  ____  .  ___
72
65
73
6
40
88.9
49
25.4
74
0
49
-12.7
74
0
49
25.4
74
0
49
-12.7
74
0
49
0
74
0
49
-12.7
74
0
0
LTYPE
5
41
330
5
100
AcDbSymbolTableRecord
100
AcDbLinetypeTableRecord
2
CENTER
70
0
3
Center ____ _ ____ _ ____ _ ____ _ ____ _ ____
72
65
73
4
40
50.8
49
31.75
74
0
49
-6.35
74
0
49
6.35
74
0
49
-6.35
74
0
0
LTYPE
5
42
330
5
100
AcDbSymbolTableRecord
100
AcDbLinetypeTableRecord
2
CENTER2
70
0
3
Center (.5x) ___ _ ___ _ ___ _ ___ _ ___ _ ___
72
65
73
4
40
28.575
49
19.05
74
0
49
-3.175
74
0
49
3.175
74
0
49
-3.175
74
0
0
LTYPE
5
43
330
5
100
AcDbSymbolTableRecord
100
AcDbLinetypeTableRecord
2
CENTERX2
70
0
3
Center (2x) ________  __  ________  __  _____
72
65
73
4
40
101.6
49
63.5
74
0
49
-12.7
74
0
49
12.7
74
0
49
-12.7
74
0
0
ENDTAB
0
TABLE
2
LAYER
5
2
330
0
100
AcDbSymbolTable
70
1
0
LAYER
5
10
330
2
100
AcDbSymbolTableRecord
100
AcDbLayerTableRecord
2
0
70
0
62
7
6
CONTINUOUS
370
0
390
F
0
ENDTAB
0
TABLE
2
STYLE
5
3
330
0
100
AcDbSymbolTable
70
3
0
STYLE
5
44
330
2
100
AcDbSymbolTableRecord
100
AcDbTextStyleTableRecord
2
Standard
70
0
40
0
41
1
50
0
71
0
42
1
3
txt
4

0
ENDTAB
0
TABLE
2
VIEW
5
6
330
0
100
AcDbSymbolTable
70
0
0
ENDTAB
0
TABLE
2
UCS
5
7
330
0
100
AcDbSymbolTable
70
0
0
ENDTAB
0
TABLE
2
APPID
5
9
330
0
100
AcDbSymbolTable
70
1
0
APPID
5
12
330
9
100
AcDbSymbolTableRecord
100
AcDbRegAppTableRecord
2
ACAD
70
0
0
ENDTAB
0
TABLE
2
DIMSTYLE
5
A
330
0
100
AcDbSymbolTable
70
1
100
AcDbDimStyleTable
71
1
0
DIMSTYLE
105
45
330
A
100
AcDbSymbolTableRecord
100
AcDbDimStyleTableRecord
2
Standard
70
0
40
1
41
0.1
42
0.025
43
0.38
44
0.05
45
0
46
0
47
0
48
0
140
0.1
141
0.09
142
0
143
25.4
144
1
145
0
146
1
147
0.025
148
0
71
0
72
0
73
0
74
1
75
0
76
0
77
0
78
0
79
0
170
0
171
2
172
0
173
0
174
0
175
0
176
0
177
0
178
0
179
0
271
4
272
4
273
2
274
2
275
0
276
0
277
2
278
46
279
0
280
0
281
0
282
0
283
1
284
0
285
0
286
0
288
0
289
3
340
Standard
341

371
-2
372
-2
0
ENDTAB
0
TABLE
2
BLOCK_RECORD
5
1
330
0
100
AcDbSymbolTable
70
2
0
BLOCK_RECORD
5
1F
330
1
100
AcDbSymbolTableRecord
100
AcDbBlockTableRecord
2
*Model_Space
70
0
280
1
281
0
0
BLOCK_RECORD
5
1E
330
1
100
AcDbSymbolTableRecord
100
AcDbBlockTableRecord
2
*Paper_Space
70
0
280
1
281
0
0
BLOCK_RECORD
5
46
330
1
100
AcDbSymbolTableRecord
100
AcDbBlockTableRecord
2
*D15
70
0
280
1
281
0
0
BLOCK_RECORD
5
49
330
1
100
AcDbSymbolTableRecord
100
AcDbBlockTableRecord
2
*D13
70
0
280
1
281
0
0
BLOCK_RECORD
5
4C
330
1
100
AcDbSymbolTableRecord
100
AcDbBlockTableRecord
2
*D11
70
0
280
1
281
0
0
BLOCK_RECORD
5
4F
330
1
100
AcDbSymbolTableRecord
100
AcDbBlockTableRecord
2
*D9
70
0
280
1
281
0
0
BLOCK_RECORD
5
52
330
1
100
AcDbSymbolTableRecord
100
AcDbBlockTableRecord
2
*D18
70
0
280
1
281
0
0
BLOCK_RECORD
5
55
330
1
100
AcDbSymbolTableRecord
100
AcDbBlockTableRecord
2
*D3
70
0
280
1
281
0
0
BLOCK_RECORD
5
58
330
1
100
AcDbSymbolTableRecord
100
AcDbBlockTableRecord
2
*D7
70
0
280
1
281
0
0
BLOCK_RECORD
5
5B
330
1
100
AcDbSymbolTableRecord
100
AcDbBlockTableRecord
2
*D1
70
0
280
1
281
0
0
BLOCK_RECORD
5
5E
330
1
100
AcDbSymbolTableRecord
100
AcDbBlockTableRecord
2
*D16
70
0
280
1
281
0
0
BLOCK_RECORD
5
61
330
1
100
AcDbSymbolTableRecord
100
AcDbBlockTableRecord
2
*D14
70
0
280
1
281
0
0
BLOCK_RECORD
5
64
330
1
100
AcDbSymbolTableRecord
100
AcDbBlockTableRecord
2
*D8
70
0
280
1
281
0
0
BLOCK_RECORD
5
67
330
1
100
AcDbSymbolTableRecord
100
AcDbBlockTableRecord
2
*D12
70
0
280
1
281
0
0
BLOCK_RECORD
5
6A
330
1
100
AcDbSymbolTableRecord
100
AcDbBlockTableRecord
2
*D4
70
0
280
1
281
0
0
BLOCK_RECORD
5
6D
330
1
100
AcDbSymbolTableRecord
100
AcDbBlockTableRecord
2
*D10
70
0
280
1
281
0
0
BLOCK_RECORD
5
70
330
1
100
AcDbSymbolTableRecord
100
AcDbBlockTableRecord
2
*D6
70
0
280
1
281
0
0
BLOCK_RECORD
5
73
330
1
100
AcDbSymbolTableRecord
100
AcDbBlockTableRecord
2
*D2
70
0
280
1
281
0
0
BLOCK_RECORD
5
76
330
1
100
AcDbSymbolTableRecord
100
AcDbBlockTableRecord
2
*D17
70
0
280
1
281
0
0
BLOCK_RECORD
5
79
330
1
100
AcDbSymbolTableRecord
100
AcDbBlockTableRecord
2
*D5
70
0
280
1
281
0
0
ENDTAB
0
ENDSEC
0
SECTION
2
BLOCKS
0
BLOCK
5
20
330
1F
100
AcDbEntity
8
0
100
AcDbBlockBegin
2
*Model_Space
70
0
10
0
20
0
30
0
3
*Model_Space
1

0
ENDBLK
5
21
330
1F
100
AcDbEntity
8
0
100
AcDbBlockEnd
0
BLOCK
5
1C
330
1B
100
AcDbEntity
8
0
100
AcDbBlockBegin
2
*Paper_Space
70
0
10
0
20
0
30
0
3
*Paper_Space
1

0
ENDBLK
5
1D
330
1F
100
AcDbEntity
8
0
100
AcDbBlockEnd
0
BLOCK
5
47
330
46
100
AcDbEntity
8
0
100
AcDbBlockBegin
2
*D15
70
1
10
0
20
0
3
*D15
1

0
LINE
5
7C
100
AcDbEntity
8
0
6
CONTINUOUS
62
7
370
0
100
AcDbLine
10
4.6546414237
20
0.580239674282
11
4
21
1.4375
0
SOLID
5
7D
100
AcDbEntity
8
0
6
CONTINUOUS
62
7
370
0
100
AcDbTrace
10
4.6546414237
20
0.580239674282
30
0
11
4.58071575719
21
0.649610161503
31
0
12
4.60718363567
22
0.669822189436
32
0
13
4.60718363567
23
0.669822189436
33
0
0
ENDBLK
5
48
330
46
100
AcDbEntity
8
0
100
AcDbBlockEnd
0
BLOCK
5
4A
330
49
100
AcDbEntity
8
0
100
AcDbBlockBegin
2
*D13
70
1
10
0
20
0
3
*D13
1

0
LINE
5
7E
100
AcDbEntity
8
0
6
CONTINUOUS
62
7
370
0
100
AcDbLine
10
3.3326318972
20
0.406207838467
11
5.625
21
-0.375
0
SOLID
5
7F
100
AcDbEntity
8
0
6
CONTINUOUS
62
7
370
0
100
AcDbTrace
10
3.3326318972
20
0.406207838467
30
0
11
3.43265769829
21
0.389712148638
31
0
12
3.42191522719
22
0.358189553901
32
0
13
3.42191522719
23
0.358189553901
33
0
0
ENDBLK
5
4B
330
49
100
AcDbEntity
8
0
100
AcDbBlockEnd
0
BLOCK
5
4D
330
4C
100
AcDbEntity
8
0
100
AcDbBlockBegin
2
*D11
70
1
10
0
20
0
3
*D11
1

0
LINE
5
80
100
AcDbEntity
8
0
6
CONTINUOUS
62
7
370
0
100
AcDbLine
10
5.15697253109
20
0.418146833475
11
5.625
21
-0.375
0
SOLID
5
81
100
AcDbEntity
8
0
6
CONTINUOUS
62
7
370
0
100
AcDbTrace
10
5.15697253109
20
0.418146833475
30
0
11
5.2221338894
21
0.340485607317
31
0
12
5.1934523563
22
0.323560941196
32
0
13
5.1934523563
23
0.323560941196
33
0
0
ENDBLK
5
4E
330
4C
100
AcDbEntity
8
0
100
AcDbBlockEnd
0
BLOCK
5
50
330
4F
100
AcDbEntity
8
0
100
AcDbBlockBegin
2
*D9
70
1
10
0
20
0
3
*D9
1

0
LINE
5
82
100
AcDbEntity
8
0
6
CONTINUOUS
62
7
370
0
100
AcDbLine
10
1.53075794228e-018
20
3.8375
11
2.60228850187e-017
21
4.2375
0
LINE
5
83
100
AcDbEntity
8
0
6
CONTINUOUS
62
7
370
0
100
AcDbLine
10
3.03125
20
3.8375
11
3.03125
21
4.2375
0
LINE
5
84
100
AcDbEntity
8
0
6
CONTINUOUS
62
7
370
0
100
AcDbLine
10
2.29613691342e-017
20
4.1875
11
3.03125
21
4.1875
0
SOLID
5
85
100
AcDbEntity
8
0
6
CONTINUOUS
62
7
370
0
100
AcDbTrace
10
2.29613691342e-017
20
4.1875
30
0
11
0.1
21
4.20415138631
31
0
12
0.1
22
4.17084861369
32
0
13
0.1
23
4.17084861369
33
0
0
SOLID
5
86
100
AcDbEntity
8
0
6
CONTINUOUS
62
7
370
0
100
AcDbTrace
10
3.03125
20
4.1875
30
0
11
2.93125
21
4.17084861369
31
0
12
2.93125
22
4.20415138631
32
0
13
2.93125
23
4.20415138631
33
0
0
MTEXT
5
87
100
AcDbEntity
8
0
6
CONTINUOUS
62
7
370
0
100
AcDbMText
10
1.515625
20
4.2625
30
0
40
0.1
41
0.408333333333
71
5
72
1
1
3 1/32
7
standard
210
0
220
0
230
1
50
0
73
2
44
1
0
ENDBLK
5
51
330
4F
100
AcDbEntity
8
0
100
AcDbBlockEnd
0
BLOCK
5
53
330
52
100
AcDbEntity
8
0
100
AcDbBlockBegin
2
*D18
70
1
10
0
20
0
3
*D18
1

0
LINE
5
88
100
AcDbEntity
8
0
6
CONTINUOUS
62
7
370
0
100
AcDbLine
10
5.30625
20
3.78125
11
6.425
21
3.78125
0
LINE
5
89
100
AcDbEntity
8
0
6
CONTINUOUS
62
7
370
0
100
AcDbLine
10
5.30625
20
1.03125
11
6.425
21
1.03125
0
LINE
5
8A
100
AcDbEntity
8
0
6
CONTINUOUS
62
7
370
0
100
AcDbLine
10
6.375
20
3.78125
11
6.375
21
1.03125
0
SOLID
5
8B
100
AcDbEntity
8
0
6
CONTINUOUS
62
7
370
0
100
AcDbTrace
10
6.375
20
3.78125
30
0
11
6.39165138631
21
3.68125
31
0
12
6.35834861369
22
3.68125
32
0
13
6.35834861369
23
3.68125
33
0
0
SOLID
5
8C
100
AcDbEntity
8
0
6
CONTINUOUS
62
7
370
0
100
AcDbTrace
10
6.375
20
1.03125
30
0
11
6.35834861369
21
1.13125
31
0
12
6.39165138631
22
1.13125
32
0
13
6.39165138631
23
1.13125
33
0
0
MTEXT
5
8D
100
AcDbEntity
8
0
6
CONTINUOUS
62
7
370
0
100
AcDbMText
10
6.3
20
2.40625
30
0
40
0.1
41
0.363888888889
71
5
72
1
1
2 3/4
7
standard
210
0
220
0
230
1
50
90
73
2
44
1
0
ENDBLK
5
54
330
52
100
AcDbEntity
8
0
100
AcDbBlockEnd
0
BLOCK
5
56
330
55
100
AcDbEntity
8
0
100
AcDbBlockBegin
2
*D3
70
1
10
0
20
0
3
*D3
1

0
LINE
5
8E
100
AcDbEntity
8
0
6
CONTINUOUS
62
7
370
0
100
AcDbLine
10
6.0625
20
-1.11875
11
6.0625
21
-1.8
0
LINE
5
8F
100
AcDbEntity
8
0
6
CONTINUOUS
62
7
370
0
100
AcDbLine
10
4.359375
20
-1.11875
11
4.359375
21
-1.8
0
LINE
5
90
100
AcDbEntity
8
0
6
CONTINUOUS
62
7
370
0
100
AcDbLine
10
6.0625
20
-1.75
11
4.359375
21
-1.75
0
SOLID
5
91
100
AcDbEntity
8
0
6
CONTINUOUS
62
7
370
0
100
AcDbTrace
10
6.0625
20
-1.75
30
0
11
5.9625
21
-1.76665138631
31
0
12
5.9625
22
-1.73334861369
32
0
13
5.9625
23
-1.73334861369
33
0
0
SOLID
5
92
100
AcDbEntity
8
0
6
CONTINUOUS
62
7
370
0
100
AcDbTrace
10
4.359375
20
-1.75
30
0
11
4.459375
21
-1.73334861369
31
0
12
4.459375
22
-1.76665138631
32
0
13
4.459375
23
-1.76665138631
33
0
0
MTEXT
5
93
100
AcDbEntity
8
0
6
CONTINUOUS
62
7
370
0
100
AcDbMText
10
5.2109375
20
-1.675
30
0
40
0.1
41
0.508333333333
71
5
72
1
1
1 45/64
7
standard
210
0
220
0
230
1
50
360
73
2
44
1
0
ENDBLK
5
57
330
55
100
AcDbEntity
8
0
100
AcDbBlockEnd
0
BLOCK
5
59
330
58
100
AcDbEntity
8
0
100
AcDbBlockBegin
2
*D7
70
1
10
0
20
0
3
*D7
1

0
LINE
5
94
100
AcDbEntity
8
0
6
CONTINUOUS
62
7
370
0
100
AcDbLine
10
6.15
20
-6.12303176911e-018
11
6.4875
21
-8.87839606521e-017
0
LINE
5
95
100
AcDbEntity
8
0
6
CONTINUOUS
62
7
370
0
100
AcDbLine
10
6.15
20
0.5
11
6.4875
21
0.5
0
LINE
5
96
100
AcDbEntity
8
0
6
CONTINUOUS
62
7
370
0
100
AcDbLine
10
6.4375
20
-7.65378971139e-017
11
6.4375
21
0.5
0
SOLID
5
97
100
AcDbEntity
8
0
6
CONTINUOUS
62
7
370
0
100
AcDbTrace
10
6.4375
20
-7.65378971139e-017
30
0
11
6.42084861369
21
0.1
31
0
12
6.45415138631
22
0.1
32
0
13
6.45415138631
23
0.1
33
0
0
SOLID
5
98
100
AcDbEntity
8
0
6
CONTINUOUS
62
7
370
0
100
AcDbTrace
10
6.4375
20
0.5
30
0
11
6.45415138631
21
0.4
31
0
12
6.42084861369
22
0.4
32
0
13
6.42084861369
23
0.4
33
0
0
MTEXT
5
99
100
AcDbEntity
8
0
6
CONTINUOUS
62
7
370
0
100
AcDbMText
10
6.3625
20
0.25
30
0
40
0.1
41
0.177777777778
71
5
72
1
1
1/2
7
standard
210
0
220
0
230
1
50
90
73
2
44
1
0
ENDBLK
5
5A
330
58
100
AcDbEntity
8
0
100
AcDbBlockEnd
0
BLOCK
5
5C
330
5B
100
AcDbEntity
8
0
100
AcDbBlockBegin
2
*D1
70
1
10
0
20
0
3
*D1
1

0
LINE
5
9A
100
AcDbEntity
8
0
6
CONTINUOUS
62
7
370
0
100
AcDbLine
10
6.0625
20
-1.25
11
5.0625
21
-1.25
0
SOLID
5
9B
100
AcDbEntity
8
0
6
CONTINUOUS
62
7
370
0
100
AcDbTrace
10
6.0625
20
-1.25
30
0
11
5.9625
21
-1.26665138631
31
0
12
5.9625
22
-1.23334861369
32
0
13
5.9625
23
-1.23334861369
33
0
0
SOLID
5
9C
100
AcDbEntity
8
0
6
CONTINUOUS
62
7
370
0
100
AcDbTrace
10
5.0625
20
-1.25
30
0
11
5.1625
21
-1.23334861369
31
0
12
5.1625
22
-1.26665138631
32
0
13
5.1625
23
-1.26665138631
33
0
0
MTEXT
5
9D
100
AcDbEntity
8
0
6
CONTINUOUS
62
7
370
0
100
AcDbMText
10
5.5625
20
-1.175
30
0
40
0.1
41
0.0222222222222
71
5
72
1
1
1
7
standard
210
0
220
0
230
1
50
360
73
2
44
1
0
LINE
5
9E
100
AcDbEntity
8
0
6
CONTINUOUS
62
7
370
0
100
AcDbLine
10
6.0625
20
-1.0875
11
6.0625
21
-1.3
0
LINE
5
9F
100
AcDbEntity
8
0
6
CONTINUOUS
62
7
370
0
100
AcDbLine
10
5.0625
20
-1.0875
11
5.0625
21
-1.3
0
ENDBLK
5
5D
330
5B
100
AcDbEntity
8
0
100
AcDbBlockEnd
0
BLOCK
5
5F
330
5E
100
AcDbEntity
8
0
100
AcDbBlockBegin
2
*D16
70
1
10
0
20
0
3
*D16
1

0
LINE
5
A0
100
AcDbEntity
8
0
6
CONTINUOUS
62
7
370
0
100
AcDbLine
10
1.53075794228e-018
20
3.8375
11
5.28111490086e-017
21
4.675
0
LINE
5
A1
100
AcDbEntity
8
0
6
CONTINUOUS
62
7
370
0
100
AcDbLine
10
6.0625
20
3.8375
11
6.0625
21
4.675
0
LINE
5
A2
100
AcDbEntity
8
0
6
CONTINUOUS
62
7
370
0
100
AcDbLine
10
4.9749633124e-017
20
4.625
11
6.0625
21
4.625
0
SOLID
5
A3
100
AcDbEntity
8
0
6
CONTINUOUS
62
7
370
0
100
AcDbTrace
10
4.9749633124e-017
20
4.625
30
0
11
0.1
21
4.64165138631
31
0
12
0.1
22
4.60834861369
32
0
13
0.1
23
4.60834861369
33
0
0
SOLID
5
A4
100
AcDbEntity
8
0
6
CONTINUOUS
62
7
370
0
100
AcDbTrace
10
6.0625
20
4.625
30
0
11
5.9625
21
4.60834861369
31
0
12
5.9625
22
4.64165138631
32
0
13
5.9625
23
4.64165138631
33
0
0
MTEXT
5
A5
100
AcDbEntity
8
0
6
CONTINUOUS
62
7
370
0
100
AcDbMText
10
3.03125
20
4.7
30
0
40
0.1
41
0.386111111111
71
5
72
1
1
6 1/16
7
standard
210
0
220
0
230
1
50
0
73
2
44
1
0
ENDBLK
5
60
330
5E
100
AcDbEntity
8
0
100
AcDbBlockEnd
0
BLOCK
5
62
330
61
100
AcDbEntity
8
0
100
AcDbBlockBegin
2
*D14
70
1
10
0
20
0
3
*D14
1

0
LINE
5
A6
100
AcDbEntity
8
0
6
CONTINUOUS
62
7
370
0
100
AcDbLine
10
2.96482573857
20
0.573197987341
11
4
21
1.4375
0
SOLID
5
A7
100
AcDbEntity
8
0
6
CONTINUOUS
62
7
370
0
100
AcDbTrace
10
2.96482573857
20
0.573197987341
30
0
11
3.03091538466
21
0.650070787121
31
0
12
3.05225943708
22
0.624507021935
32
0
13
3.05225943708
23
0.624507021935
33
0
0
ENDBLK
5
63
330
61
100
AcDbEntity
8
0
100
AcDbBlockEnd
0
BLOCK
5
65
330
64
100
AcDbEntity
8
0
100
AcDbBlockBegin
2
*D8
70
1
10
0
20
0
3
*D8
1

0
LINE
5
A8
100
AcDbEntity
8
0
6
CONTINUOUS
62
7
370
0
100
AcDbLine
10
0.78125
20
3.80625
11
0.78125
21
4.425
0
LINE
5
A9
100
AcDbEntity
8
0
6
CONTINUOUS
62
7
370
0
100
AcDbLine
10
5.28125
20
3.80625
11
5.28125
21
4.425
0
LINE
5
AA
100
AcDbEntity
8
0
6
CONTINUOUS
62
7
370
0
100
AcDbLine
10
0.78125
20
4.375
11
5.28125
21
4.375
0
SOLID
5
AB
100
AcDbEntity
8
0
6
CONTINUOUS
62
7
370
0
100
AcDbTrace
10
0.78125
20
4.375
30
0
11
0.88125
21
4.39165138631
31
0
12
0.88125
22
4.35834861369
32
0
13
0.88125
23
4.35834861369
33
0
0
SOLID
5
AC
100
AcDbEntity
8
0
6
CONTINUOUS
62
7
370
0
100
AcDbTrace
10
5.28125
20
4.375
30
0
11
5.18125
21
4.35834861369
31
0
12
5.18125
22
4.39165138631
32
0
13
5.18125
23
4.39165138631
33
0
0
MTEXT
5
AD
100
AcDbEntity
8
0
6
CONTINUOUS
62
7
370
0
100
AcDbMText
10
3.03125
20
4.45
30
0
40
0.1
41
0.341666666667
71
5
72
1
1
4 1/2
7
standard
210
0
220
0
230
1
50
0
73
2
44
1
0
ENDBLK
5
66
330
64
100
AcDbEntity
8
0
100
AcDbBlockEnd
0
BLOCK
5
68
330
67
100
AcDbEntity
8
0
100
AcDbBlockBegin
2
*D12
70
1
10
0
20
0
3
*D12
1

0
LINE
5
AE
100
AcDbEntity
8
0
6
CONTINUOUS
62
7
370
0
100
AcDbLine
10
3.93517062116
20
0.400601691092
11
5.625
21
-0.375
0
SOLID
5
AF
100
AcDbEntity
8
0
6
CONTINUOUS
62
7
370
0
100
AcDbTrace
10
3.93517062116
20
0.400601691092
30
0
11
4.03300074525
21
0.374020955865
31
0
12
4.01910875908
22
0.343754020364
32
0
13
4.01910875908
23
0.343754020364
33
0
0
ENDBLK
5
69
330
67
100
AcDbEntity
8
0
100
AcDbBlockEnd
0
BLOCK
5
6B
330
6A
100
AcDbEntity
8
0
100
AcDbBlockBegin
2
*D4
70
1
10
0
20
0
3
*D4
1

0
LINE
5
B0
100
AcDbEntity
8
0
6
CONTINUOUS
62
7
370
0
100
AcDbLine
10
6.0625
20
-1.11875
11
6.0625
21
-2.05
0
LINE
5
B1
100
AcDbEntity
8
0
6
CONTINUOUS
62
7
370
0
100
AcDbLine
10
3.859375
20
-1.11875
11
3.859375
21
-2.05
0
LINE
5
B2
100
AcDbEntity
8
0
6
CONTINUOUS
62
7
370
0
100
AcDbLine
10
6.0625
20
-2
11
3.859375
21
-2
0
SOLID
5
B3
100
AcDbEntity
8
0
6
CONTINUOUS
62
7
370
0
100
AcDbTrace
10
6.0625
20
-2
30
0
11
5.9625
21
-2.01665138631
31
0
12
5.9625
22
-1.98334861369
32
0
13
5.9625
23
-1.98334861369
33
0
0
SOLID
5
B4
100
AcDbEntity
8
0
6
CONTINUOUS
62
7
370
0
100
AcDbTrace
10
3.859375
20
-2
30
0
11
3.959375
21
-1.98334861369
31
0
12
3.959375
22
-2.01665138631
32
0
13
3.959375
23
-2.01665138631
33
0
0
MTEXT
5
B5
100
AcDbEntity
8
0
6
CONTINUOUS
62
7
370
0
100
AcDbMText
10
4.9609375
20
-1.925
30
0
40
0.1
41
0.497222222222
71
5
72
1
1
2 13/64
7
standard
210
0
220
0
230
1
50
360
73
2
44
1
0
ENDBLK
5
6C
330
6A
100
AcDbEntity
8
0
100
AcDbBlockEnd
0
BLOCK
5
6E
330
6D
100
AcDbEntity
8
0
100
AcDbBlockBegin
2
*D10
70
1
10
0
20
0
3
*D10
1

0
LINE
5
B6
100
AcDbEntity
8
0
6
CONTINUOUS
62
7
370
0
100
AcDbLine
10
4.41993315345
20
0.390648685191
11
5.625
21
-0.375
0
SOLID
5
B7
100
AcDbEntity
8
0
6
CONTINUOUS
62
7
370
0
100
AcDbTrace
10
4.41993315345
20
0.390648685191
30
0
11
4.51326738953
21
0.351076105775
31
0
12
4.49540807441
22
0.322967040909
32
0
13
4.49540807441
23
0.322967040909
33
0
0
LINE
5
B8
100
AcDbEntity
8
0
6
CONTINUOUS
62
7
370
0
100
AcDbLine
10
5.625
20
-0.375
11
5.625
21
-0.375
0
LINE
5
B9
100
AcDbEntity
8
0
6
CONTINUOUS
62
7
370
0
100
AcDbLine
10
5.625
20
-0.375
11
5.625
21
-0.375
0
ENDBLK
5
6F
330
6D
100
AcDbEntity
8
0
100
AcDbBlockEnd
0
BLOCK
5
71
330
70
100
AcDbEntity
8
0
100
AcDbBlockBegin
2
*D6
70
1
10
0
20
0
3
*D6
1

0
LINE
5
BA
100
AcDbEntity
8
0
6
CONTINUOUS
62
7
370
0
100
AcDbLine
10
6.0625
20
-1.11875
11
6.0625
21
-2.55
0
LINE
5
BB
100
AcDbEntity
8
0
6
CONTINUOUS
62
7
370
0
100
AcDbLine
10
2.90625
20
-1.11875
11
2.90625
21
-2.55
0
LINE
5
BC
100
AcDbEntity
8
0
6
CONTINUOUS
62
7
370
0
100
AcDbLine
10
6.0625
20
-2.5
11
2.90625
21
-2.5
0
SOLID
5
BD
100
AcDbEntity
8
0
6
CONTINUOUS
62
7
370
0
100
AcDbTrace
10
6.0625
20
-2.5
30
0
11
5.9625
21
-2.51665138631
31
0
12
5.9625
22
-2.48334861369
32
0
13
5.9625
23
-2.48334861369
33
0
0
SOLID
5
BE
100
AcDbEntity
8
0
6
CONTINUOUS
62
7
370
0
100
AcDbTrace
10
2.90625
20
-2.5
30
0
11
3.00625
21
-2.48334861369
31
0
12
3.00625
22
-2.51665138631
32
0
13
3.00625
23
-2.51665138631
33
0
0
MTEXT
5
BF
100
AcDbEntity
8
0
6
CONTINUOUS
62
7
370
0
100
AcDbMText
10
4.484375
20
-2.425
30
0
40
0.1
41
0.430555555556
71
5
72
1
1
3 5/32
7
standard
210
0
220
0
230
1
50
360
73
2
44
1
0
ENDBLK
5
72
330
70
100
AcDbEntity
8
0
100
AcDbBlockEnd
0
BLOCK
5
74
330
73
100
AcDbEntity
8
0
100
AcDbBlockBegin
2
*D2
70
1
10
0
20
0
3
*D2
1

0
LINE
5
C0
100
AcDbEntity
8
0
6
CONTINUOUS
62
7
370
0
100
AcDbLine
10
6.0625
20
-1.5
11
4.703125
21
-1.5
0
SOLID
5
C1
100
AcDbEntity
8
0
6
CONTINUOUS
62
7
370
0
100
AcDbTrace
10
6.0625
20
-1.5
30
0
11
5.9625
21
-1.51665138631
31
0
12
5.9625
22
-1.48334861369
32
0
13
5.9625
23
-1.48334861369
33
0
0
SOLID
5
C2
100
AcDbEntity
8
0
6
CONTINUOUS
62
7
370
0
100
AcDbTrace
10
4.703125
20
-1.5
30
0
11
4.803125
21
-1.48334861369
31
0
12
4.803125
22
-1.51665138631
32
0
13
4.803125
23
-1.51665138631
33
0
0
MTEXT
5
C3
100
AcDbEntity
8
0
6
CONTINUOUS
62
7
370
0
100
AcDbMText
10
5.3828125
20
-1.425
30
0
40
0.1
41
0.497222222222
71
5
72
1
1
1 23/64
7
standard
210
0
220
0
230
1
50
360
73
2
44
1
0
LINE
5
C4
100
AcDbEntity
8
0
6
CONTINUOUS
62
7
370
0
100
AcDbLine
10
6.0625
20
-1.0875
11
6.0625
21
-1.55
0
LINE
5
C5
100
AcDbEntity
8
0
6
CONTINUOUS
62
7
370
0
100
AcDbLine
10
4.703125
20
-1.0875
11
4.703125
21
-1.55
0
ENDBLK
5
75
330
73
100
AcDbEntity
8
0
100
AcDbBlockEnd
0
BLOCK
5
77
330
76
100
AcDbEntity
8
0
100
AcDbBlockBegin
2
*D17
70
1
10
0
20
0
3
*D17
1

0
LINE
5
C6
100
AcDbEntity
8
0
6
CONTINUOUS
62
7
370
0
100
AcDbLine
10
5.8375
20
4.0625
11
6.925
21
4.0625
0
LINE
5
C7
100
AcDbEntity
8
0
6
CONTINUOUS
62
7
370
0
100
AcDbLine
10
5.8375
20
-6.12303176911e-018
11
6.925
21
-2.72474913725e-016
0
LINE
5
C8
100
AcDbEntity
8
0
6
CONTINUOUS
62
7
370
0
100
AcDbLine
10
6.875
20
4.0625
11
6.875
21
-2.60228850187e-016
0
SOLID
5
C9
100
AcDbEntity
8
0
6
CONTINUOUS
62
7
370
0
100
AcDbTrace
10
6.875
20
4.0625
30
0
11
6.89165138631
21
3.9625
31
0
12
6.85834861369
22
3.9625
32
0
13
6.85834861369
23
3.9625
33
0
0
SOLID
5
CA
100
AcDbEntity
8
0
6
CONTINUOUS
62
7
370
0
100
AcDbTrace
10
6.875
20
-2.60228850187e-016
30
0
11
6.85834861369
21
0.1
31
0
12
6.89165138631
22
0.1
32
0
13
6.89165138631
23
0.1
33
0
0
MTEXT
5
CB
100
AcDbEntity
8
0
6
CONTINUOUS
62
7
370
0
100
AcDbMText
10
6.8
20
2.03125
30
0
40
0.1
41
0.397222222222
71
5
72
1
1
4 1/16
7
standard
210
0
220
0
230
1
50
90
73
2
44
1
0
ENDBLK
5
78
330
76
100
AcDbEntity
8
0
100
AcDbBlockEnd
0
BLOCK
5
7A
330
79
100
AcDbEntity
8
0
100
AcDbBlockBegin
2
*D5
70
1
10
0
20
0
3
*D5
1

0
LINE
5
CC
100
AcDbEntity
8
0
6
CONTINUOUS
62
7
370
0
100
AcDbLine
10
6.0625
20
-2.25
11
3.25
21
-2.25
0
SOLID
5
CD
100
AcDbEntity
8
0
6
CONTINUOUS
62
7
370
0
100
AcDbTrace
10
6.0625
20
-2.25
30
0
11
5.9625
21
-2.26665138631
31
0
12
5.9625
22
-2.23334861369
32
0
13
5.9625
23
-2.23334861369
33
0
0
SOLID
5
CE
100
AcDbEntity
8
0
6
CONTINUOUS
62
7
370
0
100
AcDbTrace
10
3.25
20
-2.25
30
0
11
3.35
21
-2.23334861369
31
0
12
3.35
22
-2.26665138631
32
0
13
3.35
23
-2.26665138631
33
0
0
MTEXT
5
CF
100
AcDbEntity
8
0
6
CONTINUOUS
62
7
370
0
100
AcDbMText
10
4.65625
20
-2.175
30
0
40
0.1
41
0.463888888889
71
5
72
1
1
2 13/16
7
standard
210
0
220
0
230
1
50
360
73
2
44
1
0
LINE
5
D0
100
AcDbEntity
8
0
6
CONTINUOUS
62
7
370
0
100
AcDbLine
10
6.0625
20
-1.11875
11
6.0625
21
-2.3
0
LINE
5
D1
100
AcDbEntity
8
0
6
CONTINUOUS
62
7
370
0
100
AcDbLine
10
3.25
20
-1.11875
11
3.25
21
-2.3
0
ENDBLK
5
7B
330
79
100
AcDbEntity
8
0
100
AcDbBlockEnd
0
ENDSEC
0
SECTION
2
ENTITIES
0
ARC
5
D2
100
AcDbEntity
8
0
6
ByLayer
62
256
370
-1
100
AcDbCircle
10
0.25
20
0.25
40
0.125
100
AcDbArc
50
180
51
270
0
ARC
5
D3
100
AcDbEntity
8
0
6
ByLayer
62
256
370
-1
100
AcDbCircle
10
0.28125
20
0.28125
40
0.0625
100
AcDbArc
50
180
51
270
0
ARC
5
D4
100
AcDbEntity
8
0
6
ByLayer
62
256
370
-1
100
AcDbCircle
10
0.25
20
0.25
40
0.25
100
AcDbArc
50
180
51
270
0
LINE
5
D5
100
AcDbEntity
8
0
6
ByLayer
62
256
370
-1
100
AcDbLine
10
-8.32667268469e-017
20
-0.875
11
-8.32667268469e-017
21
-1
0
LINE
5
D6
100
AcDbEntity
8
0
6
ByLayer
62
256
370
-1
100
AcDbLine
10
0.125
20
-0.875
11
5.875
21
-0.875
0
LINE
5
D7
100
AcDbEntity
8
0
6
ByLayer
62
256
370
-1
100
AcDbLine
10
0.125
20
-0.75
11
0.125
21
-0.875
0
CIRCLE
5
D8
100
AcDbEntity
8
0
6
ByLayer
62
256
370
-1
100
AcDbCircle
10
0.4375
20
0.4375
40
0.125
0
CIRCLE
5
D9
100
AcDbEntity
8
0
6
ByLayer
62
256
370
-1
100
AcDbCircle
10
0.4375
20
0.4375
40
0.0625
0
LINE
5
DA
100
AcDbEntity
8
0
6
ByLayer
62
256
370
-1
100
AcDbLine
10
0.312742365233
20
-0.75
11
0.312742365233
21
-0.7
0
LINE
5
DB
100
AcDbEntity
8
0
6
ByLayer
62
256
370
-1
100
AcDbLine
10
0.362742365233
20
-0.65
11
0.312742365233
21
-0.7
0
LINE
5
DC
100
AcDbEntity
8
0
6
ByLayer
62
256
370
-1
100
AcDbLine
10
0.362742365233
20
-0.65
11
0.512455028473
21
-0.65
0
LINE
5
DD
100
AcDbEntity
8
0
6
ByLayer
62
256
370
-1
100
AcDbLine
10
0.562455028473
20
-0.7
11
0.562455028473
21
-0.75
0
LINE
5
DE
100
AcDbEntity
8
0
6
ByLayer
62
256
370
-1
100
AcDbLine
10
0.512455028473
20
-0.65
11
0.562455028473
21
-0.7
0
LINE
5
DF
100
AcDbEntity
8
0
6
DASHED2
62
256
370
-1
100
AcDbLine
10
0.312742
20
-0.75
11
0.312742
21
-0.875
0
LINE
5
E0
100
AcDbEntity
8
0
6
DASHED2
62
256
370
-1
100
AcDbLine
10
0.5
20
-0.65
11
0.5
21
-1
0
LINE
5
E1
100
AcDbEntity
8
0
6
DASHED2
62
256
370
-1
100
AcDbLine
10
0.562455028473
20
-0.75
11
0.562455028473
21
-0.875
0
LINE
5
E2
100
AcDbEntity
8
0
6
DASHED2
62
256
370
-1
100
AcDbLine
10
0.375
20
-0.65
11
0.375
21
-1
0
LINE
5
E3
100
AcDbEntity
8
0
6
DASHED2
62
256
370
-1
100
AcDbLine
10
0.21875
20
-0.75
11
0.21875
21
-0.875
0
ARC
5
E4
100
AcDbEntity
8
0
6
ByLayer
62
256
370
-1
100
AcDbCircle
10
5.8125
20
0.25
40
0.125
100
AcDbArc
50
270
51
0
0
ARC
5
E5
100
AcDbEntity
8
0
6
ByLayer
62
256
370
-1
100
AcDbCircle
10
5.78125
20
0.28125
40
0.0625
100
AcDbArc
50
270
51
0
0
ARC
5
E6
100
AcDbEntity
8
0
6
ByLayer
62
256
370
-1
100
AcDbCircle
10
5.8125
20
0.25
40
0.25
100
AcDbArc
50
270
51
0
0
CIRCLE
5
E7
100
AcDbEntity
8
0
6
ByLayer
62
256
370
-1
100
AcDbCircle
10
5.625
20
0.4375
40
0.125
0
CIRCLE
5
E8
100
AcDbEntity
8
0
6
ByLayer
62
256
370
-1
100
AcDbCircle
10
5.625
20
0.4375
40
0.0625
0
LINE
5
E9
100
AcDbEntity
8
0
6
ByLayer
62
256
370
-1
100
AcDbLine
10
0.28125
20
0.21875
11
5.78125
21
0.21875
0
LINE
5
EA
100
AcDbEntity
8
0
6
ByLayer
62
256
370
-1
100
AcDbLine
10
0.25
20
0.125
11
5.8125
21
0.125
0
LINE
5
EB
100
AcDbEntity
8
0
6
ByLayer
62
256
370
-1
100
AcDbLine
10
0.25
20
0
11
5.8125
21
0
0
ARC
5
EC
100
AcDbEntity
8
0
6
ByLayer
62
256
370
-1
100
AcDbCircle
10
0.25
20
3.8125
40
0.125
100
AcDbArc
50
90
51
180
0
ARC
5
ED
100
AcDbEntity
8
0
6
ByLayer
62
256
370
-1
100
AcDbCircle
10
0.28125
20
3.78125
40
0.0625
100
AcDbArc
50
90
51
180
0
ARC
5
EE
100
AcDbEntity
8
0
6
ByLayer
62
256
370
-1
100
AcDbCircle
10
0.25
20
3.8125
40
0.25
100
AcDbArc
50
90
51
180
0
CIRCLE
5
EF
100
AcDbEntity
8
0
6
ByLayer
62
256
370
-1
100
AcDbCircle
10
0.4375
20
3.625
40
0.125
0
CIRCLE
5
F0
100
AcDbEntity
8
0
6
ByLayer
62
256
370
-1
100
AcDbCircle
10
0.4375
20
3.625
40
0.0625
0
ARC
5
F1
100
AcDbEntity
8
0
6
ByLayer
62
256
370
-1
100
AcDbCircle
10
5.8125
20
3.8125
40
0.125
100
AcDbArc
50
0
51
90
0
ARC
5
F2
100
AcDbEntity
8
0
6
ByLayer
62
256
370
-1
100
AcDbCircle
10
5.78125
20
3.78125
40
0.0625
100
AcDbArc
50
0
51
90
0
ARC
5
F3
100
AcDbEntity
8
0
6
ByLayer
62
256
370
-1
100
AcDbCircle
10
5.8125
20
3.8125
40
0.25
100
AcDbArc
50
0
51
90
0
CIRCLE
5
F4
100
AcDbEntity
8
0
6
ByLayer
62
256
370
-1
100
AcDbCircle
10
5.625
20
3.625
40
0.125
0
CIRCLE
5
F5
100
AcDbEntity
8
0
6
ByLayer
62
256
370
-1
100
AcDbCircle
10
5.625
20
3.625
40
0.0625
0
LINE
5
F6
100
AcDbEntity
8
0
6
ByLayer
62
256
370
-1
100
AcDbLine
10
5.8125
20
4.0625
11
0.25
21
4.0625
0
LINE
5
F7
100
AcDbEntity
8
0
6
ByLayer
62
256
370
-1
100
AcDbLine
10
5.8125
20
3.9375
11
0.25
21
3.9375
0
LINE
5
F8
100
AcDbEntity
8
0
6
ByLayer
62
256
370
-1
100
AcDbLine
10
5.78125
20
3.84375
11
0.28125
21
3.84375
0
LINE
5
F9
100
AcDbEntity
8
0
6
ByLayer
62
256
370
-1
100
AcDbLine
10
-0
20
3.8125
11
0
21
0.25
0
LINE
5
FA
100
AcDbEntity
8
0
6
ByLayer
62
256
370
-1
100
AcDbLine
10
0.125
20
3.8125
11
0.125
21
0.25
0
LINE
5
FB
100
AcDbEntity
8
0
6
ByLayer
62
256
370
-1
100
AcDbLine
10
0.21875
20
3.78125
11
0.21875
21
0.28125
0
LINE
5
FC
100
AcDbEntity
8
0
6
ByLayer
62
256
370
-1
100
AcDbLine
10
5.84375
20
0.28125
11
5.84375
21
3.78125
0
LINE
5
FD
100
AcDbEntity
8
0
6
ByLayer
62
256
370
-1
100
AcDbLine
10
5.9375
20
0.25
11
5.9375
21
3.8125
0
LINE
5
FE
100
AcDbEntity
8
0
6
ByLayer
62
256
370
-1
100
AcDbLine
10
6.0625
20
0.25
11
6.0625
21
3.8125
0
LINE
5
FF
100
AcDbEntity
8
0
6
ByLayer
62
6
370
-1
100
AcDbLine
10
0.78125
20
1.03125
11
5.28125
21
1.03125
0
LINE
5
100
100
AcDbEntity
8
0
6
ByLayer
62
6
370
-1
100
AcDbLine
10
5.28125
20
1.03125
11
5.28125
21
3.78125
0
LINE
5
101
100
AcDbEntity
8
0
6
ByLayer
62
6
370
-1
100
AcDbLine
10
5.28125
20
3.78125
11
0.78125
21
3.78125
0
LINE
5
102
100
AcDbEntity
8
0
6
ByLayer
62
6
370
-1
100
AcDbLine
10
0.78125
20
3.78125
11
0.78125
21
1.03125
0
CIRCLE
5
103
100
AcDbEntity
8
0
6
CONTINUOUS
62
6
370
-1
100
AcDbCircle
10
5.0625
20
0.5
40
0.125
0
CIRCLE
5
104
100
AcDbEntity
8
0
6
CONTINUOUS
62
6
370
-1
100
AcDbCircle
10
4.359375
20
0.5
40
0.125
0
CIRCLE
5
105
100
AcDbEntity
8
0
6
CONTINUOUS
62
6
370
-1
100
AcDbCircle
10
3.859375
20
0.5
40
0.125
0
CIRCLE
5
106
100
AcDbEntity
8
0
6
CONTINUOUS
62
6
370
-1
100
AcDbCircle
10
3.25
20
0.5
40
0.125
0
LINE
5
107
100
AcDbEntity
8
0
6
CONTINUOUS
62
6
370
-1
100
AcDbLine
10
3.125
20
-0.875
11
3.125
21
-1
0
LINE
5
108
100
AcDbEntity
8
0
6
CONTINUOUS
62
6
370
-1
100
AcDbLine
10
3.375
20
-0.875
11
3.375
21
-1
0
LINE
5
109
100
AcDbEntity
8
0
6
CONTINUOUS
62
6
370
-1
100
AcDbLine
10
3.734375
20
-0.875
11
3.734375
21
-1
0
LINE
5
10A
100
AcDbEntity
8
0
6
CONTINUOUS
62
6
370
-1
100
AcDbLine
10
3.984375
20
-0.875
11
3.984375
21
-1
0
LINE
5
10B
100
AcDbEntity
8
0
6
CONTINUOUS
62
6
370
-1
100
AcDbLine
10
4.234375
20
-0.875
11
4.234375
21
-1
0
LINE
5
10C
100
AcDbEntity
8
0
6
CONTINUOUS
62
6
370
-1
100
AcDbLine
10
4.484375
20
-0.875
11
4.484375
21
-1
0
LINE
5
10D
100
AcDbEntity
8
0
6
CONTINUOUS
62
6
370
-1
100
AcDbLine
10
4.9375
20
-0.875
11
4.9375
21
-1
0
LINE
5
10E
100
AcDbEntity
8
0
6
CONTINUOUS
62
6
370
-1
100
AcDbLine
10
5.1875
20
-0.875
11
5.1875
21
-1
0
LINE
5
10F
100
AcDbEntity
8
0
6
CENTER2
62
5
370
-1
100
AcDbLine
10
2.90625
20
0.6875
11
2.90625
21
-2.5
0
LINE
5
110
100
AcDbEntity
8
0
6
CENTER2
62
5
370
-1
100
AcDbLine
10
3.25
20
0.6875
11
3.25
21
-2.25
0
LINE
5
111
100
AcDbEntity
8
0
6
CENTER2
62
5
370
-1
100
AcDbLine
10
3.859375
20
0.6875
11
3.859375
21
-2
0
LINE
5
112
100
AcDbEntity
8
0
6
CENTER2
62
5
370
-1
100
AcDbLine
10
4.359375
20
0.6875
11
4.359375
21
-1.75
0
LINE
5
113
100
AcDbEntity
8
0
6
CENTER2
62
5
370
-1
100
AcDbLine
10
4.703125
20
0.6875
11
4.703125
21
-1.5
0
LINE
5
114
100
AcDbEntity
8
0
6
CENTER2
62
5
370
-1
100
AcDbLine
10
5.0625
20
0.6875
11
5.0625
21
-1.25
0
LINE
5
115
100
AcDbEntity
8
0
6
ByLayer
62
256
370
-1
100
AcDbLine
10
6.0625
20
-1
11
6.0625
21
-0.875
0
LINE
5
116
100
AcDbEntity
8
0
6
ByLayer
62
256
370
-1
100
AcDbLine
10
5.9375
20
-0.875
11
5.9375
21
-0.75
0
LINE
5
117
100
AcDbEntity
8
0
6
ByLayer
62
256
370
-1
100
AcDbLine
10
5.50024236523
20
-0.75
11
5.50024236523
21
-0.7
0
LINE
5
118
100
AcDbEntity
8
0
6
ByLayer
62
256
370
-1
100
AcDbLine
10
5.50024236523
20
-0.7
11
5.55024236523
21
-0.65
0
LINE
5
119
100
AcDbEntity
8
0
6
ByLayer
62
256
370
-1
100
AcDbLine
10
5.55024236523
20
-0.65
11
5.69995502847
21
-0.65
0
LINE
5
11A
100
AcDbEntity
8
0
6
ByLayer
62
256
370
-1
100
AcDbLine
10
5.74995502847
20
-0.7
11
5.74995502847
21
-0.75
0
LINE
5
11B
100
AcDbEntity
8
0
6
ByLayer
62
256
370
-1
100
AcDbLine
10
5.69995502847
20
-0.65
11
5.74995502847
21
-0.7
0
LINE
5
11C
100
AcDbEntity
8
0
6
DASHED2
62
256
370
-1
100
AcDbLine
10
5.74995502847
20
-0.75
11
5.74995502847
21
-0.875
0
LINE
5
11D
100
AcDbEntity
8
0
6
DASHED2
62
256
370
-1
100
AcDbLine
10
5.50024236523
20
-0.75
11
5.50024236523
21
-0.875
0
LINE
5
11E
100
AcDbEntity
8
0
6
DASHED2
62
256
370
-1
100
AcDbLine
10
5.5625
20
-0.65
11
5.5625
21
-1
0
LINE
5
11F
100
AcDbEntity
8
0
6
DASHED2
62
256
370
-1
100
AcDbLine
10
5.6875
20
-0.65
11
5.6875
21
-1
0
LINE
5
120
100
AcDbEntity
8
0
6
DASHED2
62
256
370
-1
100
AcDbLine
10
5.84375
20
-0.75
11
5.84375
21
-0.875
0
LINE
5
121
100
AcDbEntity
8
0
6
ByLayer
62
256
370
-1
100
AcDbLine
10
5.9375
20
-0.75
11
0.125
21
-0.75
0
LINE
5
122
100
AcDbEntity
8
0
6
ByLayer
62
256
370
-1
100
AcDbLine
10
6.0625
20
-0.875
11
-8.32667268469e-017
21
-0.875
0
LINE
5
123
100
AcDbEntity
8
0
6
ByLayer
62
256
370
-1
100
AcDbLine
10
-8.32667268469e-017
20
-1
11
6.0625
21
-1
0
DIMENSION
5
124
100
AcDbEntity
8
0
6
ByLayer
62
256
370
-1
100
AcDbDimension
2
*D1
10
5.0625
20
-1.25
30
0
11
5.5625
21
-1.175
31
0
70
32
71
5
3
Standard
53
0
210
0
220
0
230
1
100
AcDbAlignedDimension
13
6.0625
23
-1.0625
33
0
14
5.0625
24
-1.0625
34
0
100
AcDbRotatedDimension
0
DIMENSION
5
125
100
AcDbEntity
8
0
6
ByLayer
62
256
370
-1
100
AcDbDimension
2
*D2
10
4.703125
20
-1.5
30
0
11
5.3828125
21
-1.425
31
0
70
32
71
5
3
Standard
53
0
210
0
220
0
230
1
100
AcDbAlignedDimension
13
6.0625
23
-1.0625
33
0
14
4.703125
24
-1.0625
34
0
100
AcDbRotatedDimension
0
DIMENSION
5
126
100
AcDbEntity
8
0
6
ByLayer
62
256
370
-1
100
AcDbDimension
2
*D3
10
4.359375
20
-1.75
30
0
11
5.2109375
21
-1.675
31
0
70
33
71
5
3
Standard
53
0
210
0
220
0
230
1
100
AcDbAlignedDimension
13
6.0625
23
-1.09375
33
0
14
4.359375
24
-1.09375
34
0
0
DIMENSION
5
127
100
AcDbEntity
8
0
6
ByLayer
62
256
370
-1
100
AcDbDimension
2
*D4
10
3.859375
20
-2
30
0
11
4.9609375
21
-1.925
31
0
70
33
71
5
3
Standard
53
0
210
0
220
0
230
1
100
AcDbAlignedDimension
13
6.0625
23
-1.09375
33
0
14
3.859375
24
-1.09375
34
0
0
DIMENSION
5
128
100
AcDbEntity
8
0
6
ByLayer
62
256
370
-1
100
AcDbDimension
2
*D5
10
3.25
20
-2.25
30
0
11
4.65625
21
-2.175
31
0
70
32
71
5
3
Standard
53
0
210
0
220
0
230
1
100
AcDbAlignedDimension
13
6.0625
23
-1.09375
33
0
14
3.25
24
-1.09375
34
0
100
AcDbRotatedDimension
0
DIMENSION
5
129
100
AcDbEntity
8
0
6
ByLayer
62
256
370
-1
100
AcDbDimension
2
*D6
10
2.90625
20
-2.5
30
0
11
4.484375
21
-2.425
31
0
70
33
71
5
3
Standard
53
0
210
0
220
0
230
1
100
AcDbAlignedDimension
13
6.0625
23
-1.09375
33
0
14
2.90625
24
-1.09375
34
0
0
DIMENSION
5
12A
100
AcDbEntity
8
0
6
ByLayer
62
256
370
-1
100
AcDbDimension
2
*D7
10
6.4375
20
0.5
30
0
11
6.3625
21
0.25
31
0
70
33
71
5
3
Standard
53
0
210
0
220
0
230
1
100
AcDbAlignedDimension
13
6.125
23
0
33
0
14
6.125
24
0.5
34
0
0
LINE
5
12B
100
AcDbEntity
8
0
6
CENTER2
62
5
370
-1
100
AcDbLine
10
2.5
20
0.5
11
6.625
21
0.5
0
DIMENSION
5
12C
100
AcDbEntity
8
0
6
ByLayer
62
256
370
-1
100
AcDbDimension
2
*D8
10
5.28125
20
4.375
30
0
11
3.03125
21
4.45
31
0
70
33
71
5
3
Standard
53
0
210
0
220
0
230
1
100
AcDbAlignedDimension
13
0.78125
23
3.78125
33
0
14
5.28125
24
3.78125
34
0
0
LINE
5
12D
100
AcDbEntity
8
0
6
CENTER2
62
5
370
-1
100
AcDbLine
10
3.03125
20
-0.25
11
3.03125
21
4.3125
0
DIMENSION
5
12E
100
AcDbEntity
8
0
6
ByLayer
62
256
370
-1
100
AcDbDimension
2
*D9
10
3.03125
20
4.1875
30
0
11
1.515625
21
4.2625
31
0
70
33
71
5
3
Standard
53
0
210
0
220
0
230
1
100
AcDbAlignedDimension
13
0
23
3.8125
33
0
14
3.03125
24
3.8125
34
0
0
LEADER
5
12F
100
AcDbEntity
8
0
6
ByLayer
62
256
370
-1
100
AcDbLeader
3
Standard
71
1
72
0
73
3
74
0
75
0
40
1
41
10
76
4
76
4
10
4.41993315345
20
0.390648685191
30
0
10
5.625
20
-0.375
30
0
10
5.625
20
-0.375
30
0
10
5.625
20
-0.375
30
0
0
LEADER
5
130
100
AcDbEntity
8
0
6
ByLayer
62
256
370
-1
100
AcDbLeader
3
Standard
71
1
72
0
73
3
74
0
75
0
40
1
41
10
76
2
76
2
10
5.15697253109
20
0.418146833475
30
0
10
5.625
20
-0.375
30
0
0
LEADER
5
131
100
AcDbEntity
8
0
6
ByLayer
62
256
370
-1
100
AcDbLeader
3
Standard
71
1
72
0
73
3
74
0
75
0
40
1
41
10
76
2
76
2
10
3.93517062116
20
0.400601691092
30
0
10
5.625
20
-0.375
30
0
0
LEADER
5
132
100
AcDbEntity
8
0
6
ByLayer
62
256
370
-1
100
AcDbLeader
3
Standard
71
1
72
0
73
3
74
0
75
0
40
1
41
10
76
2
76
2
10
3.3326318972
20
0.406207838467
30
0
10
5.625
20
-0.375
30
0
0
MTEXT
5
133
100
AcDbEntity
8
0
6
ByLayer
62
256
370
-1
100
AcDbMText
10
5.75
20
-0.25
30
0
40
0.2
41
1.44444444444
71
1
72
1
1
4 @ %%C1/4"
7

210
0
220
0
230
1
50
0
73
2
44
1
0
LEADER
5
134
100
AcDbEntity
8
0
6
ByLayer
62
256
370
-1
100
AcDbLeader
3
Standard
71
1
72
0
73
3
74
0
75
0
40
1
41
10
76
2
76
2
10
2.96482573857
20
0.573197987341
30
0
10
4
20
1.4375
30
0
0
LEADER
5
135
100
AcDbEntity
8
0
6
ByLayer
62
256
370
-1
100
AcDbLeader
3
Standard
71
1
72
0
73
3
74
0
75
0
40
1
41
10
76
2
76
2
10
4.6546414237
20
0.580239674282
30
0
10
4
20
1.4375
30
0
0
CIRCLE
5
136
100
AcDbEntity
8
0
6
ByLayer
62
6
370
-1
100
AcDbCircle
10
2.90625
20
0.5
40
0.0625
0
CIRCLE
5
137
100
AcDbEntity
8
0
6
ByLayer
62
6
370
-1
100
AcDbCircle
10
4.703125
20
0.5
40
0.0625
0
LINE
5
138
100
AcDbEntity
8
0
6
ByLayer
62
6
370
-1
100
AcDbLine
10
2.84375
20
-0.875
11
2.84375
21
-1
0
LINE
5
139
100
AcDbEntity
8
0
6
ByLayer
62
6
370
-1
100
AcDbLine
10
2.96875
20
-0.875
11
2.96875
21
-1
0
LINE
5
13A
100
AcDbEntity
8
0
6
ByLayer
62
6
370
-1
100
AcDbLine
10
4.640625
20
-0.875
11
4.640625
21
-1
0
LINE
5
13B
100
AcDbEntity
8
0
6
ByLayer
62
6
370
-1
100
AcDbLine
10
4.765625
20
-0.875
11
4.765625
21
-1
0
MTEXT
5
13C
100
AcDbEntity
8
0
6
ByLayer
62
256
370
-1
100
AcDbMText
10
3.625
20
2.125
30
0
40
0.2
41
1.4
71
1
72
1
1
2 @ %%C1/8"
7

210
0
220
0
230
1
50
0
73
2
44
1
0
DIMENSION
5
13D
100
AcDbEntity
8
0
6
ByLayer
62
256
370
-1
100
AcDbDimension
2
*D16
10
6.0625
20
4.625
30
0
11
3.03125
21
4.7
31
0
70
33
71
5
3
Standard
53
0
210
0
220
0
230
1
100
AcDbAlignedDimension
13
0
23
3.8125
33
0
14
6.0625
24
3.8125
34
0
0
LINE
5
13E
100
AcDbEntity
8
0
6
CONTINUOUS
62
6
370
-1
100
AcDbLine
10
0.75
20
-0.875
11
0.75
21
-1
0
LINE
5
13F
100
AcDbEntity
8
0
6
CONTINUOUS
62
6
370
-1
100
AcDbLine
10
5.25
20
-0.875
11
5.25
21
-1
0
DIMENSION
5
140
100
AcDbEntity
8
0
6
ByLayer
62
256
370
-1
100
AcDbDimension
2
*D17
10
6.875
20
-2.60228850187e-016
30
0
11
6.8
21
2.03125
31
0
70
33
71
5
3
Standard
53
0
210
0
220
0
230
1
100
AcDbAlignedDimension
13
5.8125
23
4.0625
33
0
14
5.8125
24
0
34
0
0
DIMENSION
5
141
100
AcDbEntity
8
0
6
ByLayer
62
256
370
-1
100
AcDbDimension
2
*D18
10
6.375
20
1.03125
30
0
11
6.3
21
2.40625
31
0
70
33
71
5
3
Standard
53
0
210
0
220
0
230
1
100
AcDbAlignedDimension
13
5.28125
23
3.78125
33
0
14
5.28125
24
1.03125
34
0
0
ENDSEC
0
SECTION
2
OBJECTS
0
DICTIONARY
5
C
330
0
100
AcDbDictionary
281
1
3
ACAD_GROUP
350
D
0
DICTIONARY
5
D
330
C
100
AcDbDictionary
281
1
0
ENDSEC
0
EOF
